<?xml version="1.0" encoding="utf-8"?>
<!-- Generator: Adobe Illustrator 22.0.1, SVG Export Plug-In . SVG Version: 6.00 Build 0)  -->
<svg version="1.1" xmlns="http://www.w3.org/2000/svg" xmlns:xlink="http://www.w3.org/1999/xlink" x="0px" y="0px"
	 viewBox="0 0 500 500" style="enable-background:new 0 0 500 500;" xml:space="preserve">
<style type="text/css">
	.st0{display:none;}
	.st1{display:inline;fill:none;}
	.st2{display:inline;}
	.st3{fill:none;}
	.st4{fill:#FFF1DE;}
	.st5{fill:#523D2C;}
	.st6{fill:#B24D4D;}
	.st7{fill:#EEAE66;}
	.st8{fill:#F2F2F2;}
	.st9{fill:#B46E4C;}
	.st10{fill:#669966;}
	.st11{fill:#FFFFFF;}
	.st12{fill:#E6E6E6;}
	.st13{fill:#C1272D;}
</style>
<g id="GRADE" class="st0">
</g>
<g id="Camada_1">
	<path class="st6" d="M250,15C120.2,15,15,120.2,15,250s105.2,235,235,235s235-105.2,235-235S379.8,15,250,15z M274.3,374.2
		c0,0.4-0.4,0.8-0.8,0.8h-47c-0.4,0-0.8-0.4-0.8-0.8l0-47c0-0.4,0.4-0.8,0.8-0.8h47c0.4,0,0.8,0.4,0.8,0.8V374.2z M274.3,311.7
		c0,0.4-0.4,0.8-0.8,0.8h-47c-0.4,0-0.8-0.4-0.8-0.8l0-185.9c0-0.4,0.4-0.8,0.8-0.8h47c0.4,0,0.8,0.4,0.8,0.8V311.7z"/>
</g>
</svg>
